<svg width="26" height="26" viewBox="0 0 26 26" fill="none" xmlns="http://www.w3.org/2000/svg">
<path d="M17.7281 4.67188V5.02187H18.0781H22.3438C22.5999 5.02187 22.8062 5.22826 22.8062 5.48438V22.3438C22.8062 22.5999 22.5999 22.8062 22.3438 22.8062H3.65625C3.40014 22.8062 3.19375 22.5999 3.19375 22.3438V5.48438C3.19375 5.22826 3.40014 5.02187 3.65625 5.02187H7.92188H8.27187V4.67188V3.19375H9.4V4.67188V5.02187H9.75H16.25H16.6V4.67188V3.19375H17.7281V4.67188ZM21.3281 21.6781H21.6781V21.3281V6.5V6.15H21.3281H18.0781H17.7281V6.5V7.57188H16.6V6.5V6.15H16.25H9.75H9.4V6.5V7.57188H8.27187V6.5V6.15H7.92188H4.67188H4.32187V6.5V21.3281V21.6781H4.67188H21.3281Z" stroke="#01CC90" stroke-width="0.7"/>
<path d="M17.7281 4.67188V5.02187H18.0781H22.3438C22.5999 5.02187 22.8062 5.22826 22.8062 5.48438V22.3438C22.8062 22.5999 22.5999 22.8062 22.3438 22.8062H3.65625C3.40014 22.8062 3.19375 22.5999 3.19375 22.3438V5.48438C3.19375 5.22826 3.40014 5.02187 3.65625 5.02187H7.92188H8.27187V4.67188V3.19375H9.4V4.67188V5.02187H9.75H16.25H16.6V4.67188V3.19375H17.7281V4.67188ZM21.3281 21.6781H21.6781V21.3281V6.5V6.15H21.3281H18.0781H17.7281V6.5V7.57188H16.6V6.5V6.15H16.25H9.75H9.4V6.5V7.57188H8.27187V6.5V6.15H7.92188H4.67188H4.32187V6.5V21.3281V21.6781H4.67188H21.3281Z" stroke="black" stroke-opacity="0.2" stroke-width="0.7"/>
<path d="M15.328 17H14.208L11.672 13.168V17H10.552V11.408H11.672L14.208 15.248V11.408H15.328V17Z" fill="#01CC90"/>
<path d="M15.328 17H14.208L11.672 13.168V17H10.552V11.408H11.672L14.208 15.248V11.408H15.328V17Z" fill="black" fill-opacity="0.2"/>
<rect x="9" y="15" width="8" height="1" fill="#01CC90"/>
<rect x="9" y="15" width="8" height="1" fill="black" fill-opacity="0.2"/>
<rect x="9" y="13" width="8" height="1" fill="#01CC90"/>
<rect x="9" y="13" width="8" height="1" fill="black" fill-opacity="0.2"/>
</svg>
