<svg width="20" height="4" viewBox="0 0 20 4" fill="none" xmlns="http://www.w3.org/2000/svg">
<path d="M19.5 2C19.5 2.39782 19.342 2.77936 19.0607 3.06066C18.7794 3.34196 18.3978 3.5 18 3.5C17.6022 3.5 17.2206 3.34196 16.9393 3.06066C16.658 2.77936 16.5 2.39782 16.5 2C16.5 1.60218 16.658 1.22064 16.9393 0.93934C17.2206 0.658035 17.6022 0.5 18 0.5C18.3978 0.5 18.7794 0.658035 19.0607 0.93934C19.342 1.22064 19.5 1.60218 19.5 2Z" stroke="#01CC90"/>
<path d="M19.5 2C19.5 2.39782 19.342 2.77936 19.0607 3.06066C18.7794 3.34196 18.3978 3.5 18 3.5C17.6022 3.5 17.2206 3.34196 16.9393 3.06066C16.658 2.77936 16.5 2.39782 16.5 2C16.5 1.60218 16.658 1.22064 16.9393 0.93934C17.2206 0.658035 17.6022 0.5 18 0.5C18.3978 0.5 18.7794 0.658035 19.0607 0.93934C19.342 1.22064 19.5 1.60218 19.5 2Z" stroke="black" stroke-opacity="0.2"/>
<path d="M11.5 2C11.5 2.39782 11.342 2.77936 11.0607 3.06066C10.7794 3.34196 10.3978 3.5 10 3.5C9.60218 3.5 9.22064 3.34196 8.93934 3.06066C8.65804 2.77935 8.5 2.39782 8.5 2C8.5 1.60218 8.65804 1.22064 8.93934 0.93934C9.22064 0.658035 9.60218 0.5 10 0.5C10.3978 0.5 10.7794 0.658035 11.0607 0.93934C11.342 1.22064 11.5 1.60218 11.5 2Z" stroke="#01CC90"/>
<path d="M11.5 2C11.5 2.39782 11.342 2.77936 11.0607 3.06066C10.7794 3.34196 10.3978 3.5 10 3.5C9.60218 3.5 9.22064 3.34196 8.93934 3.06066C8.65804 2.77935 8.5 2.39782 8.5 2C8.5 1.60218 8.65804 1.22064 8.93934 0.93934C9.22064 0.658035 9.60218 0.5 10 0.5C10.3978 0.5 10.7794 0.658035 11.0607 0.93934C11.342 1.22064 11.5 1.60218 11.5 2Z" stroke="black" stroke-opacity="0.2"/>
<path d="M3.5 2C3.5 2.39782 3.34196 2.77936 3.06066 3.06066C2.77935 3.34196 2.39782 3.5 2 3.5C1.60218 3.5 1.22064 3.34196 0.93934 3.06066C0.658035 2.77935 0.5 2.39782 0.5 2C0.5 1.60218 0.658035 1.22064 0.93934 0.93934C1.22064 0.658035 1.60218 0.5 2 0.5C2.39782 0.5 2.77936 0.658035 3.06066 0.93934C3.34196 1.22064 3.5 1.60218 3.5 2Z" stroke="#01CC90"/>
<path d="M3.5 2C3.5 2.39782 3.34196 2.77936 3.06066 3.06066C2.77935 3.34196 2.39782 3.5 2 3.5C1.60218 3.5 1.22064 3.34196 0.93934 3.06066C0.658035 2.77935 0.5 2.39782 0.5 2C0.5 1.60218 0.658035 1.22064 0.93934 0.93934C1.22064 0.658035 1.60218 0.5 2 0.5C2.39782 0.5 2.77936 0.658035 3.06066 0.93934C3.34196 1.22064 3.5 1.60218 3.5 2Z" stroke="black" stroke-opacity="0.2"/>
</svg>
