<svg width="26" height="26" viewBox="0 0 26 26" fill="none" xmlns="http://www.w3.org/2000/svg">
<path d="M6.4999 3.90039C5.81034 3.90039 5.14902 4.17432 4.66142 4.66191C4.17383 5.14951 3.8999 5.81083 3.8999 6.50039V9.10039C3.8999 9.78995 4.17383 10.4513 4.66142 10.9389C5.14902 11.4265 5.81034 11.7004 6.4999 11.7004H9.0999C9.78947 11.7004 10.4508 11.4265 10.9384 10.9389C11.426 10.4513 11.6999 9.78995 11.6999 9.10039V6.50039C11.6999 5.81083 11.426 5.14951 10.9384 4.66191C10.4508 4.17432 9.78947 3.90039 9.0999 3.90039H6.4999ZM6.4999 14.3004C5.81034 14.3004 5.14902 14.5743 4.66142 15.0619C4.17383 15.5495 3.8999 16.2108 3.8999 16.9004V19.5004C3.8999 20.19 4.17383 20.8513 4.66142 21.3389C5.14902 21.8265 5.81034 22.1004 6.4999 22.1004H9.0999C9.78947 22.1004 10.4508 21.8265 10.9384 21.3389C11.426 20.8513 11.6999 20.19 11.6999 19.5004V16.9004C11.6999 16.2108 11.426 15.5495 10.9384 15.0619C10.4508 14.5743 9.78947 14.3004 9.0999 14.3004H6.4999ZM14.2999 16.9004C14.2999 16.2108 14.5738 15.5495 15.0614 15.0619C15.549 14.5743 16.2103 14.3004 16.8999 14.3004H19.4999C20.1895 14.3004 20.8508 14.5743 21.3384 15.0619C21.826 15.5495 22.0999 16.2108 22.0999 16.9004V19.5004C22.0999 20.19 21.826 20.8513 21.3384 21.3389C20.8508 21.8265 20.1895 22.1004 19.4999 22.1004H16.8999C16.2103 22.1004 15.549 21.8265 15.0614 21.3389C14.5738 20.8513 14.2999 20.19 14.2999 19.5004V16.9004Z" fill="#01CC90"/>
<path d="M6.4999 3.90039C5.81034 3.90039 5.14902 4.17432 4.66142 4.66191C4.17383 5.14951 3.8999 5.81083 3.8999 6.50039V9.10039C3.8999 9.78995 4.17383 10.4513 4.66142 10.9389C5.14902 11.4265 5.81034 11.7004 6.4999 11.7004H9.0999C9.78947 11.7004 10.4508 11.4265 10.9384 10.9389C11.426 10.4513 11.6999 9.78995 11.6999 9.10039V6.50039C11.6999 5.81083 11.426 5.14951 10.9384 4.66191C10.4508 4.17432 9.78947 3.90039 9.0999 3.90039H6.4999ZM6.4999 14.3004C5.81034 14.3004 5.14902 14.5743 4.66142 15.0619C4.17383 15.5495 3.8999 16.2108 3.8999 16.9004V19.5004C3.8999 20.19 4.17383 20.8513 4.66142 21.3389C5.14902 21.8265 5.81034 22.1004 6.4999 22.1004H9.0999C9.78947 22.1004 10.4508 21.8265 10.9384 21.3389C11.426 20.8513 11.6999 20.19 11.6999 19.5004V16.9004C11.6999 16.2108 11.426 15.5495 10.9384 15.0619C10.4508 14.5743 9.78947 14.3004 9.0999 14.3004H6.4999ZM14.2999 16.9004C14.2999 16.2108 14.5738 15.5495 15.0614 15.0619C15.549 14.5743 16.2103 14.3004 16.8999 14.3004H19.4999C20.1895 14.3004 20.8508 14.5743 21.3384 15.0619C21.826 15.5495 22.0999 16.2108 22.0999 16.9004V19.5004C22.0999 20.19 21.826 20.8513 21.3384 21.3389C20.8508 21.8265 20.1895 22.1004 19.4999 22.1004H16.8999C16.2103 22.1004 15.549 21.8265 15.0614 21.3389C14.5738 20.8513 14.2999 20.19 14.2999 19.5004V16.9004Z" fill="black" fill-opacity="0.2"/>
<g opacity="0.3">
<path d="M15.0613 4.66191C14.5737 5.14951 14.2998 5.81083 14.2998 6.50039V9.10039C14.2998 9.78995 14.5737 10.4513 15.0613 10.9389C15.5489 11.4265 16.2102 11.7004 16.8998 11.7004H19.4998C20.1894 11.7004 20.8507 11.4265 21.3383 10.9389C21.8259 10.4513 22.0998 9.78995 22.0998 9.10039V6.50039C22.0998 5.81083 21.8259 5.14951 21.3383 4.66191C20.8507 4.17432 20.1894 3.90039 19.4998 3.90039H16.8998C16.2102 3.90039 15.5489 4.17432 15.0613 4.66191Z" fill="#01CC90"/>
<path d="M15.0613 4.66191C14.5737 5.14951 14.2998 5.81083 14.2998 6.50039V9.10039C14.2998 9.78995 14.5737 10.4513 15.0613 10.9389C15.5489 11.4265 16.2102 11.7004 16.8998 11.7004H19.4998C20.1894 11.7004 20.8507 11.4265 21.3383 10.9389C21.8259 10.4513 22.0998 9.78995 22.0998 9.10039V6.50039C22.0998 5.81083 21.8259 5.14951 21.3383 4.66191C20.8507 4.17432 20.1894 3.90039 19.4998 3.90039H16.8998C16.2102 3.90039 15.5489 4.17432 15.0613 4.66191Z" fill="black" fill-opacity="0.2"/>
</g>
</svg>
