<svg width="28" height="20" viewBox="0 0 28 20" fill="none" xmlns="http://www.w3.org/2000/svg">
<path d="M23.2585 8.81633C22.6758 4.22699 18.7465 0.666992 13.9998 0.666992C10.3252 0.666992 7.13317 2.81366 5.67584 6.19899C2.81184 7.05633 0.666504 9.76033 0.666504 12.667C0.666504 16.2097 3.45184 19.087 6.94384 19.295V19.3337H21.9865V19.3297L21.9998 19.3337C24.9412 19.3337 27.3332 16.9417 27.3332 14.0003C27.3316 12.805 26.9293 11.6447 26.1907 10.705C25.452 9.76523 24.4196 9.10024 23.2585 8.81633ZM8.6665 10.0003H12.6665V6.00033H15.3332V10.0003H19.3332L13.9998 16.667L8.6665 10.0003Z" fill="#01CC90"/>
<path d="M23.2585 8.81633C22.6758 4.22699 18.7465 0.666992 13.9998 0.666992C10.3252 0.666992 7.13317 2.81366 5.67584 6.19899C2.81184 7.05633 0.666504 9.76033 0.666504 12.667C0.666504 16.2097 3.45184 19.087 6.94384 19.295V19.3337H21.9865V19.3297L21.9998 19.3337C24.9412 19.3337 27.3332 16.9417 27.3332 14.0003C27.3316 12.805 26.9293 11.6447 26.1907 10.705C25.452 9.76523 24.4196 9.10024 23.2585 8.81633ZM8.6665 10.0003H12.6665V6.00033H15.3332V10.0003H19.3332L13.9998 16.667L8.6665 10.0003Z" fill="#FF9211"/>
</svg>
