<svg width="24" height="24" viewBox="0 0 24 24" fill="none" xmlns="http://www.w3.org/2000/svg">
<path d="M17.5339 4.17598L17.5331 4.17515C16.6206 3.25706 15.5367 2.52712 14.3429 2.02678L14.3421 2.02645C13.119 1.51135 11.8049 1.24732 10.4778 1.25002L10.4768 1.25002L10.4312 1.25002C9.07928 1.25688 7.77481 1.52485 6.54629 2.05104L6.5458 2.05125C5.36211 2.55677 4.28825 3.28809 3.38425 4.20432L3.38345 4.20513C2.47698 5.11969 1.75705 6.20182 1.26375 7.39126L17.5339 4.17598ZM17.5339 4.17598C18.4496 5.09294 19.1781 6.17929 19.6789 7.37449C20.1968 8.61584 20.4601 9.93468 20.4557 11.2951C20.4489 12.6497 20.1808 13.9594 19.6566 15.1908C19.1499 16.3806 18.4271 17.4469 17.5073 18.36L17.5067 18.3607C16.5953 19.2686 15.5155 19.9901 14.3278 20.4844C13.1091 20.9911 11.8173 21.25 10.4815 21.25H10.4335C8.88668 21.2423 7.36274 20.8755 5.98171 20.1786L5.87546 20.125H5.75646H2.19865C1.88253 20.125 1.62286 19.8668 1.62286 19.5469V15.9844V15.8657L1.5695 15.7596C0.877628 14.3848 0.506899 12.8462 0.500204 11.2971L0.500198 11.2961M17.5339 4.17598L0.500198 11.2961M0.500198 11.2961C0.49179 9.95661 0.751394 8.62897 1.26373 7.39131L0.500198 11.2961ZM4.17599 11.25C4.17599 12.1466 4.90307 12.875 5.79865 12.875C6.69724 12.875 7.4213 12.1459 7.4213 11.25C7.4213 10.3535 6.69422 9.62502 5.79865 9.62502C4.90307 9.62502 4.17599 10.3535 4.17599 11.25ZM8.85411 11.25C8.85411 12.1466 9.5812 12.875 10.4768 12.875C11.3723 12.875 12.0994 12.1466 12.0994 11.25C12.0994 10.3535 11.3723 9.62502 10.4768 9.62502C9.5812 9.62502 8.85411 10.3535 8.85411 11.25ZM13.5322 11.25C13.5322 12.1466 14.2593 12.875 15.1549 12.875C16.0505 12.875 16.7776 12.1466 16.7776 11.25C16.7776 10.3535 16.0505 9.62502 15.1549 9.62502C14.2593 9.62502 13.5322 10.3535 13.5322 11.25Z" stroke="#01CC90"/>
<path d="M17.5339 4.17598L17.5331 4.17515C16.6206 3.25706 15.5367 2.52712 14.3429 2.02678L14.3421 2.02645C13.119 1.51135 11.8049 1.24732 10.4778 1.25002L10.4768 1.25002L10.4312 1.25002C9.07928 1.25688 7.77481 1.52485 6.54629 2.05104L6.5458 2.05125C5.36211 2.55677 4.28825 3.28809 3.38425 4.20432L3.38345 4.20513C2.47698 5.11969 1.75705 6.20182 1.26375 7.39126L17.5339 4.17598ZM17.5339 4.17598C18.4496 5.09294 19.1781 6.17929 19.6789 7.37449C20.1968 8.61584 20.4601 9.93468 20.4557 11.2951C20.4489 12.6497 20.1808 13.9594 19.6566 15.1908C19.1499 16.3806 18.4271 17.4469 17.5073 18.36L17.5067 18.3607C16.5953 19.2686 15.5155 19.9901 14.3278 20.4844C13.1091 20.9911 11.8173 21.25 10.4815 21.25H10.4335C8.88668 21.2423 7.36274 20.8755 5.98171 20.1786L5.87546 20.125H5.75646H2.19865C1.88253 20.125 1.62286 19.8668 1.62286 19.5469V15.9844V15.8657L1.5695 15.7596C0.877628 14.3848 0.506899 12.8462 0.500204 11.2971L0.500198 11.2961M17.5339 4.17598L0.500198 11.2961M0.500198 11.2961C0.49179 9.95661 0.751394 8.62897 1.26373 7.39131L0.500198 11.2961ZM4.17599 11.25C4.17599 12.1466 4.90307 12.875 5.79865 12.875C6.69724 12.875 7.4213 12.1459 7.4213 11.25C7.4213 10.3535 6.69422 9.62502 5.79865 9.62502C4.90307 9.62502 4.17599 10.3535 4.17599 11.25ZM8.85411 11.25C8.85411 12.1466 9.5812 12.875 10.4768 12.875C11.3723 12.875 12.0994 12.1466 12.0994 11.25C12.0994 10.3535 11.3723 9.62502 10.4768 9.62502C9.5812 9.62502 8.85411 10.3535 8.85411 11.25ZM13.5322 11.25C13.5322 12.1466 14.2593 12.875 15.1549 12.875C16.0505 12.875 16.7776 12.1466 16.7776 11.25C16.7776 10.3535 16.0505 9.62502 15.1549 9.62502C14.2593 9.62502 13.5322 10.3535 13.5322 11.25Z" stroke="black" stroke-opacity="0.2"/>
<path fill-rule="evenodd" clip-rule="evenodd" d="M19.4109 4.57279C20.3724 5.53564 21.1374 6.67636 21.6632 7.93138C21.6678 7.94243 21.6724 7.95348 21.677 7.96454C21.8855 8.324 22.0704 8.69759 22.2302 9.08306L22.028 8.9476C22.0544 9.03479 22.0796 9.12228 22.1037 9.21007L22.2303 9.08319C22.717 10.2591 22.9636 11.5205 22.9556 12.7931L22.9556 12.795C22.9492 14.2666 22.5968 15.7291 21.9396 17.035L21.8329 17.2471V17.4845V21.047C21.8329 21.0914 21.7964 21.1251 21.7571 21.1251H18.1993H17.9613L17.7488 21.2324C16.7475 21.7376 15.6671 22.0602 14.5583 22.1879C13.7295 22.3951 12.8757 22.5001 12.0046 22.5001H11.9554C10.5813 22.4934 9.22433 22.2169 7.96089 21.6889C8.43056 21.9796 8.92375 22.233 9.43604 22.4462C10.7157 22.9783 12.0728 23.2501 13.4743 23.2501H13.5235C15.1482 23.2422 16.7488 22.857 18.1993 22.1251H21.7571C22.3501 22.1251 22.8329 21.6423 22.8329 21.047V17.4845C23.5595 16.0408 23.9485 14.4259 23.9556 12.7993C23.9644 11.3932 23.6919 9.99942 23.154 8.70013C22.6359 7.45068 21.8796 6.31394 20.9274 5.35326C19.9778 4.39079 18.8498 3.62257 17.6063 3.09154C17.5546 3.06938 17.5027 3.04765 17.4508 3.02637C18.1623 3.46016 18.8207 3.97902 19.4109 4.57279ZM17.0485 10.938C16.9324 10.8973 16.8078 10.8751 16.6781 10.8751C16.0593 10.8751 15.5554 11.379 15.5554 12.0001C15.5554 12.3843 15.7482 12.7236 16.0417 12.9266C16.0369 12.8684 16.0345 12.8095 16.0345 12.7501C16.0345 11.9843 16.4402 11.312 17.0485 10.938ZM17.7596 11.6979C17.7864 11.7941 17.8007 11.8954 17.8007 12.0001C17.8007 12.4809 17.4988 12.8914 17.0754 13.0524C17.0487 12.9562 17.0345 12.8548 17.0345 12.7501C17.0345 12.2694 17.3363 11.8589 17.7596 11.6979ZM8.40337 11.6979C8.43014 11.7941 8.44446 11.8954 8.44446 12.0001C8.44446 12.4812 8.14362 12.8919 7.7194 13.0527C7.69257 12.9564 7.67822 12.8549 7.67822 12.7501C7.67822 12.2694 7.98006 11.8589 8.40337 11.6979ZM8.19828 11.2977L7.01692 13.083C6.89717 13.0491 6.78547 12.9958 6.68546 12.9266C6.68067 12.8684 6.67822 12.8096 6.67822 12.7501C6.67822 11.9843 7.08393 11.312 7.69222 10.938C7.89291 11.0085 8.06778 11.1345 8.19828 11.2977ZM13.0815 11.6979C13.1083 11.7941 13.1226 11.8954 13.1226 12.0001C13.1226 12.4808 12.8207 12.8913 12.3974 13.0524C12.3707 12.9562 12.3563 12.8548 12.3563 12.7501C12.3563 12.2694 12.6582 11.8589 13.0815 11.6979ZM12.3703 10.938C11.7621 11.312 11.3563 11.9843 11.3563 12.7501C11.3563 12.8096 11.3588 12.8684 11.3636 12.9266C11.0701 12.7236 10.8773 12.3843 10.8773 12.0001C10.8773 11.379 11.3812 10.8751 11.9999 10.8751C12.1296 10.8751 12.2543 10.8973 12.3703 10.938Z" fill="#01CC90"/>
<path fill-rule="evenodd" clip-rule="evenodd" d="M19.4109 4.57279C20.3724 5.53564 21.1374 6.67636 21.6632 7.93138C21.6678 7.94243 21.6724 7.95348 21.677 7.96454C21.8855 8.324 22.0704 8.69759 22.2302 9.08306L22.028 8.9476C22.0544 9.03479 22.0796 9.12228 22.1037 9.21007L22.2303 9.08319C22.717 10.2591 22.9636 11.5205 22.9556 12.7931L22.9556 12.795C22.9492 14.2666 22.5968 15.7291 21.9396 17.035L21.8329 17.2471V17.4845V21.047C21.8329 21.0914 21.7964 21.1251 21.7571 21.1251H18.1993H17.9613L17.7488 21.2324C16.7475 21.7376 15.6671 22.0602 14.5583 22.1879C13.7295 22.3951 12.8757 22.5001 12.0046 22.5001H11.9554C10.5813 22.4934 9.22433 22.2169 7.96089 21.6889C8.43056 21.9796 8.92375 22.233 9.43604 22.4462C10.7157 22.9783 12.0728 23.2501 13.4743 23.2501H13.5235C15.1482 23.2422 16.7488 22.857 18.1993 22.1251H21.7571C22.3501 22.1251 22.8329 21.6423 22.8329 21.047V17.4845C23.5595 16.0408 23.9485 14.4259 23.9556 12.7993C23.9644 11.3932 23.6919 9.99942 23.154 8.70013C22.6359 7.45068 21.8796 6.31394 20.9274 5.35326C19.9778 4.39079 18.8498 3.62257 17.6063 3.09154C17.5546 3.06938 17.5027 3.04765 17.4508 3.02637C18.1623 3.46016 18.8207 3.97902 19.4109 4.57279ZM17.0485 10.938C16.9324 10.8973 16.8078 10.8751 16.6781 10.8751C16.0593 10.8751 15.5554 11.379 15.5554 12.0001C15.5554 12.3843 15.7482 12.7236 16.0417 12.9266C16.0369 12.8684 16.0345 12.8095 16.0345 12.7501C16.0345 11.9843 16.4402 11.312 17.0485 10.938ZM17.7596 11.6979C17.7864 11.7941 17.8007 11.8954 17.8007 12.0001C17.8007 12.4809 17.4988 12.8914 17.0754 13.0524C17.0487 12.9562 17.0345 12.8548 17.0345 12.7501C17.0345 12.2694 17.3363 11.8589 17.7596 11.6979ZM8.40337 11.6979C8.43014 11.7941 8.44446 11.8954 8.44446 12.0001C8.44446 12.4812 8.14362 12.8919 7.7194 13.0527C7.69257 12.9564 7.67822 12.8549 7.67822 12.7501C7.67822 12.2694 7.98006 11.8589 8.40337 11.6979ZM8.19828 11.2977L7.01692 13.083C6.89717 13.0491 6.78547 12.9958 6.68546 12.9266C6.68067 12.8684 6.67822 12.8096 6.67822 12.7501C6.67822 11.9843 7.08393 11.312 7.69222 10.938C7.89291 11.0085 8.06778 11.1345 8.19828 11.2977ZM13.0815 11.6979C13.1083 11.7941 13.1226 11.8954 13.1226 12.0001C13.1226 12.4808 12.8207 12.8913 12.3974 13.0524C12.3707 12.9562 12.3563 12.8548 12.3563 12.7501C12.3563 12.2694 12.6582 11.8589 13.0815 11.6979ZM12.3703 10.938C11.7621 11.312 11.3563 11.9843 11.3563 12.7501C11.3563 12.8096 11.3588 12.8684 11.3636 12.9266C11.0701 12.7236 10.8773 12.3843 10.8773 12.0001C10.8773 11.379 11.3812 10.8751 11.9999 10.8751C12.1296 10.8751 12.2543 10.8973 12.3703 10.938Z" fill="black" fill-opacity="0.2"/>
</svg>
